<svg fill="none" height="100%" width="100%" viewBox="0 0 682 902" xmlns:xlink="http://www.w3.org/1999/xlink" xmlns="http://www.w3.org/2000/svg"><defs><radialGradient id="i0" gradientUnits="userSpaceOnUse" spreadMethod="pad" cx="-1" cy="18.639" r="100.294" fy="18.639" fx="-1"><stop stop-opacity="0.8" offset="0.1%" stop-color="#000000" /><stop stop-opacity="0.4" offset="46.5%" stop-color="#000000" /><stop stop-opacity="0" offset="92.9%" stop-color="#000000" /></radialGradient><linearGradient id="i1" gradientUnits="userSpaceOnUse" spreadMethod="pad" x2="67.262" y2="-0.229" x1="-97.029" y1="-0.229"><stop offset="0%" stop-color="#e4e8ef" /><stop offset="50%" stop-color="#c2c6d0" /><stop offset="100%" stop-color="#a0a5b0" /></linearGradient><linearGradient id="i2" gradientUnits="userSpaceOnUse" spreadMethod="pad" x2="67.262" y2="-0.229" x1="-97.029" y1="-0.229"><stop offset="0%" stop-color="#e4e8ef" /><stop offset="50%" stop-color="#c2c6d0" /><stop offset="100%" stop-color="#a0a5b0" /></linearGradient><linearGradient id="i3" gradientUnits="userSpaceOnUse" spreadMethod="pad" x2="67.319" y2="-0.229" x1="-96.971" y1="-0.229"><stop offset="0%" stop-color="#a0a5b0" /><stop offset="50%" stop-color="#c2c6d0" /><stop offset="100%" stop-color="#e4e8ef" /></linearGradient><linearGradient id="i4" gradientUnits="userSpaceOnUse" spreadMethod="pad" x2="67.319" y2="-0.229" x1="-96.971" y1="-0.229"><stop offset="0%" stop-color="#a0a5b0" /><stop offset="50%" stop-color="#c2c6d0" /><stop offset="100%" stop-color="#e4e8ef" /></linearGradient><linearGradient id="i5" gradientUnits="userSpaceOnUse" spreadMethod="pad" x2="0" y2="250.236" x1="0" y1="-78.447"><stop offset="0%" stop-color="#e4e8ef" /><stop offset="50%" stop-color="#c2c6d0" /><stop offset="100%" stop-color="#a0a5b0" /></linearGradient><linearGradient id="i6" gradientUnits="userSpaceOnUse" spreadMethod="pad" x2="-1" y2="40.807" x1="-1" y1="-11.476"><stop offset="0%" stop-color="#a0a5b0" /><stop offset="49.9%" stop-color="#abafb8" /><stop offset="99.9%" stop-color="#b6babf" /></linearGradient><linearGradient id="i7" gradientUnits="userSpaceOnUse" spreadMethod="pad" x2="0" y2="38.928" x1="0" y1="-72.957"><stop offset="20.6%" stop-color="#e4e8ef" /><stop offset="60.3%" stop-color="#c2c6d0" /><stop offset="100%" stop-color="#a0a5b0" /></linearGradient><linearGradient id="i8" gradientUnits="userSpaceOnUse" spreadMethod="pad" x2="18.544" y2="0.096" x1="-28.627" y1="0.096"><stop offset="0%" stop-color="#e4e8ef" /><stop offset="50%" stop-color="#c2c6d0" /><stop offset="100%" stop-color="#a0a5b0" /></linearGradient><linearGradient id="i9" gradientUnits="userSpaceOnUse" spreadMethod="pad" x2="18.798" y2="0.096" x1="-28.373" y1="0.096"><stop offset="0%" stop-color="#a0a5b0" /><stop offset="50%" stop-color="#c2c6d0" /><stop offset="100%" stop-color="#e4e8ef" /></linearGradient><linearGradient id="i10" gradientUnits="userSpaceOnUse" spreadMethod="pad" x2="0" y2="-54.282" x1="0" y1="-16.131"><stop offset="0%" stop-color="#a0a5b0" /><stop offset="50%" stop-color="#c2c6d0" /><stop offset="100%" stop-color="#e4e8ef" /></linearGradient><linearGradient id="i11" gradientUnits="userSpaceOnUse" spreadMethod="pad" x2="-0.357" y2="152.047" x1="-0.357" y1="-119.307"><stop offset="0%" stop-color="#e4e8ef" /><stop offset="50%" stop-color="#c2c6d0" /><stop offset="100%" stop-color="#a0a5b0" /></linearGradient><radialGradient id="i12" gradientUnits="userSpaceOnUse" spreadMethod="pad" cx="0" cy="0.192" r="206.101" fy="0.192" fx="0"><stop offset="0%" stop-color="#1f4760" /><stop offset="50%" stop-color="#163446" /><stop offset="100%" stop-color="#0e202b" /></radialGradient><radialGradient id="i13" gradientUnits="userSpaceOnUse" spreadMethod="pad" cx="-0.055" cy="0.167" r="48.124" fy="0.167" fx="-0.055"><stop offset="0%" stop-color="#96f5ff" /><stop offset="50%" stop-color="#75ebf7" /><stop offset="100%" stop-color="#54e0ef" /></radialGradient><radialGradient id="i14" gradientUnits="userSpaceOnUse" spreadMethod="pad" cx="-0.667" cy="0.174" r="25.166" fy="0.174" fx="-0.667"><stop offset="0%" stop-color="#96f5ff" /><stop offset="50%" stop-color="#75ebf7" /><stop offset="100%" stop-color="#54e0ef" /></radialGradient><radialGradient id="i15" gradientUnits="userSpaceOnUse" spreadMethod="pad" cx="-0.392" cy="0.167" r="48.123" fy="0.167" fx="-0.392"><stop offset="0%" stop-color="#96f5ff" /><stop offset="50%" stop-color="#75ebf7" /><stop offset="100%" stop-color="#54e0ef" /></radialGradient><radialGradient id="i16" gradientUnits="userSpaceOnUse" spreadMethod="pad" cx="-0.184" cy="-0.737" r="33.853" fy="-0.737" fx="-0.184"><stop offset="0%" stop-color="#96f5ff" /><stop offset="50%" stop-color="#75ebf7" /><stop offset="100%" stop-color="#54e0ef" /></radialGradient><radialGradient id="i17" gradientUnits="userSpaceOnUse" spreadMethod="pad" cx="-0.005" cy="0.174" r="25.166" fy="0.174" fx="-0.005"><stop offset="0%" stop-color="#96f5ff" /><stop offset="50%" stop-color="#75ebf7" /><stop offset="100%" stop-color="#54e0ef" /></radialGradient></defs><g opacity="0.24" id="i18"><g transform="translate(340,845.538)"><g transform="scale(1,1)"><animateTransform repeatCount="indefinite" type="scale" attributeName="transform" dur="6s" begin="0s" calcMode="spline" values="1 1; 1 1; 0.85 0.85; 1 1; 0.85 0.85; 1 1; 0.85 0.85; 1 1" keyTimes="0; 0.944445; 1; 1; 1; 1; 1; 1" keySplines="0 0 1 1; 0.333 0 0.667 1; 0.333 0 0.667 1; 0.333 0 0.667 1; 0.333 0 0.667 1; 0.333 0 0.667 1; 0.333 0 0.667 1" fill="freeze" /><g transform="translate(0,0)"><g id="i19"><path fill="url(#i0)" d="M105.155,0C105.155,12.958,58.075,23.462,0,23.462C-58.075,23.462,-105.155,12.958,-105.155,0C-105.155,-12.958,-58.075,-23.462,0,-23.462C58.075,-23.462,105.155,-12.958,105.155,0Z" /></g></g></g></g></g><g id="i20"><g transform="translate(342,795.519)"><animateTransform repeatCount="indefinite" type="translate" attributeName="transform" dur="6s" begin="0s" calcMode="spline" values="342 795.519; 342 795.519; 342 755.519; 342 795.519; 342 755.519; 342 795.519; 342 755.519; 342 795.519" keyTimes="0; 0.944445; 1; 1; 1; 1; 1; 1" keySplines="0 0 1 1; 0.333 0 0.667 1; 0.333 0 0.667 1; 0.333 0 0.667 1; 0.333 0 0.667 1; 0.333 0 0.667 1; 0.333 0 0.667 1" fill="freeze" /><g transform="scale(1,1) translate(-542,-849.519)"><g visibility="hidden" id="i21"><animate repeatCount="indefinite" begin="0s" calcMode="discrete" dur="6s" values="hidden; visible; visible" keyTimes="0; 0.056; 1" attributeName="visibility" /><g transform="translate(390.029,532.229)"><g transform="rotate(-5)"><animateTransform repeatCount="indefinite" type="rotate" attributeName="transform" dur="6s" begin="0s" calcMode="spline" values="-5; -5; 5; -5; 5; -5; 5; -5" keyTimes="0; 1; 1; 1; 1; 1; 1; 1" keySplines="0 0 1 1; 0.333 0 0.667 1; 0.333 0 0.667 1; 0.333 0 0.667 1; 0.333 0 0.667 1; 0.333 0 0.667 1; 0.333 0 0.667 1" fill="freeze" /><g transform="scale(1,1) translate(-64,116)"><g id="i19"><path fill="url(#i1)" d="M77.963,-109.532C76.666,-91.816,64.054,-90.446,49.933,-56.844C31.887,-13.91,27.455,27.796,17.77,73.669C5.694,130.904,-28.172,134.975,-43.367,131.855C-70.745,126.23,-83.362,93.484,-75.933,58.278C-48.509,-71.64,3.457,-133.088,53.647,-132.616C62.994,-132.528,79.225,-126.791,77.963,-109.532Z" /></g></g></g></g></g></g></g></g><g id="i20"><g transform="translate(342,795.519)"><animateTransform repeatCount="indefinite" type="translate" attributeName="transform" dur="6s" begin="0s" calcMode="spline" values="342 795.519; 342 795.519; 342 755.519; 342 795.519; 342 755.519; 342 795.519; 342 755.519; 342 795.519" keyTimes="0; 0.944445; 1; 1; 1; 1; 1; 1" keySplines="0 0 1 1; 0.333 0 0.667 1; 0.333 0 0.667 1; 0.333 0 0.667 1; 0.333 0 0.667 1; 0.333 0 0.667 1; 0.333 0 0.667 1" fill="freeze" /><g transform="scale(1,1) translate(-542,-849.519)"><g visibility="visible" id="i22"><animate repeatCount="indefinite" begin="0s" calcMode="discrete" dur="6s" values="visible; hidden; hidden" keyTimes="0; 0.056; 1" attributeName="visibility" /><g transform="translate(390.029,532.229)"><g transform="rotate(-2.406)"><animateTransform repeatCount="indefinite" type="rotate" attributeName="transform" dur="6s" begin="0s" calcMode="spline" values="-5; 5; -5; 5; -5; 5; -5" keyTimes="0; 0.166667; 0.333333; 0.5; 0.666667; 0.833333; 1" keySplines="0.333 0 0.667 1; 0.333 0 0.667 1; 0.333 0 0.667 1; 0.333 0 0.667 1; 0.333 0 0.667 1; 0.333 0 0.667 1" fill="freeze" /><g transform="scale(1,1) translate(-64,116)"><g id="i19"><path fill="url(#i2)" d="M77.963,-109.532C76.666,-91.816,64.054,-90.446,49.933,-56.844C31.887,-13.91,27.455,27.796,17.77,73.669C5.694,130.904,-28.172,134.975,-43.367,131.855C-70.745,126.23,-83.362,93.484,-75.933,58.278C-48.509,-71.64,3.457,-133.088,53.647,-132.616C62.994,-132.528,79.225,-126.791,77.963,-109.532Z" /></g></g></g></g></g></g></g></g><g id="i20"><g transform="translate(342,795.519)"><animateTransform repeatCount="indefinite" type="translate" attributeName="transform" dur="6s" begin="0s" calcMode="spline" values="342 795.519; 342 795.519; 342 755.519; 342 795.519; 342 755.519; 342 795.519; 342 755.519; 342 795.519" keyTimes="0; 0.944445; 1; 1; 1; 1; 1; 1" keySplines="0 0 1 1; 0.333 0 0.667 1; 0.333 0 0.667 1; 0.333 0 0.667 1; 0.333 0 0.667 1; 0.333 0 0.667 1; 0.333 0 0.667 1" fill="freeze" /><g transform="scale(1,1) translate(-542,-849.519)"><g visibility="hidden" id="i23"><animate repeatCount="indefinite" begin="0s" calcMode="discrete" dur="6s" values="hidden; visible; visible" keyTimes="0; 0.056; 1" attributeName="visibility" /><g transform="translate(693.971,534.229)"><g transform="rotate(9)"><animateTransform repeatCount="indefinite" type="rotate" attributeName="transform" dur="6s" begin="0s" calcMode="spline" values="9; 9; -5; 9; -5; 9; -5; 9" keyTimes="0; 1; 1; 1; 1; 1; 1; 1" keySplines="0 0 1 1; 0.333 0 0.667 1; 0.333 0 0.667 1; 0.333 0 0.667 1; 0.333 0 0.667 1; 0.333 0 0.667 1; 0.333 0 0.667 1" fill="freeze" /><g transform="scale(1,1) translate(60,114)"><g id="i19"><path fill="url(#i3)" d="M-77.963,-109.532C-76.666,-91.816,-64.054,-90.446,-49.933,-56.844C-31.887,-13.91,-27.455,27.796,-17.77,73.669C-5.694,130.904,28.172,134.975,43.367,131.855C70.745,126.23,83.362,93.484,75.933,58.278C48.509,-71.64,-3.457,-133.088,-53.647,-132.616C-62.994,-132.528,-79.225,-126.791,-77.963,-109.532Z" /></g></g></g></g></g></g></g></g><g id="i20"><g transform="translate(342,795.519)"><animateTransform repeatCount="indefinite" type="translate" attributeName="transform" dur="6s" begin="0s" calcMode="spline" values="342 795.519; 342 795.519; 342 755.519; 342 795.519; 342 755.519; 342 795.519; 342 755.519; 342 795.519" keyTimes="0; 0.944445; 1; 1; 1; 1; 1; 1" keySplines="0 0 1 1; 0.333 0 0.667 1; 0.333 0 0.667 1; 0.333 0 0.667 1; 0.333 0 0.667 1; 0.333 0 0.667 1; 0.333 0 0.667 1" fill="freeze" /><g transform="scale(1,1) translate(-542,-849.519)"><g visibility="visible" id="i24"><animate repeatCount="indefinite" begin="0s" calcMode="discrete" dur="6s" values="visible; hidden; hidden" keyTimes="0; 0.056; 1" attributeName="visibility" /><g transform="translate(693.971,534.229)"><g transform="rotate(5.369)"><animateTransform repeatCount="indefinite" type="rotate" attributeName="transform" dur="6s" begin="0s" calcMode="spline" values="9; -5; 9; -5; 9; -5; 9" keyTimes="0; 0.166667; 0.333333; 0.5; 0.666667; 0.833333; 1" keySplines="0.333 0 0.667 1; 0.333 0 0.667 1; 0.333 0 0.667 1; 0.333 0 0.667 1; 0.333 0 0.667 1; 0.333 0 0.667 1" fill="freeze" /><g transform="scale(1,1) translate(60,114)"><g id="i19"><path fill="url(#i4)" d="M-77.963,-109.532C-76.666,-91.816,-64.054,-90.446,-49.933,-56.844C-31.887,-13.91,-27.455,27.796,-17.77,73.669C-5.694,130.904,28.172,134.975,43.367,131.855C70.745,126.23,83.362,93.484,75.933,58.278C48.509,-71.64,-3.457,-133.088,-53.647,-132.616C-62.994,-132.528,-79.225,-126.791,-77.963,-109.532Z" /></g></g></g></g></g></g></g></g><g id="i20"><g transform="translate(342,795.519)"><animateTransform repeatCount="indefinite" type="translate" attributeName="transform" dur="6s" begin="0s" calcMode="spline" values="342 795.519; 342 795.519; 342 755.519; 342 795.519; 342 755.519; 342 795.519; 342 755.519; 342 795.519" keyTimes="0; 0.944445; 1; 1; 1; 1; 1; 1" keySplines="0 0 1 1; 0.333 0 0.667 1; 0.333 0 0.667 1; 0.333 0 0.667 1; 0.333 0 0.667 1; 0.333 0 0.667 1; 0.333 0 0.667 1" fill="freeze" /><g transform="scale(1,1) translate(-542,-849.519)"><g id="i25" transform="matrix(1,0,0,1,540,658.447)"><path fill="url(#i5)" d="M183.653,-72.253C183.653,-40.577,180.71,-11.573,175.246,14.631C174.697,17.302,174.114,19.946,173.5,22.559C148.536,129.807,80.281,187.878,0,187.878C-80.281,187.878,-148.536,129.807,-173.5,22.559C-174.114,19.946,-174.697,17.302,-175.246,14.631C-180.71,-11.573,-183.653,-40.577,-183.653,-72.253C-183.653,-142.718,-109.957,-187.878,0,-187.878C109.957,-187.878,183.653,-142.718,183.653,-72.253Z" /></g><g id="i26" transform="matrix(1,0,0,1,540,703.476)"><path fill="url(#i6)" d="M175.246,-30.398C174.697,-27.727,174.114,-25.083,173.5,-22.47C152.089,-15.034,119.941,-5.046,88.515,0.265C88.515,0.265,88.515,20.924,88.515,20.924C88.515,20.924,85.829,21.538,85.829,21.538C85.441,21.626,46.472,30.398,0,30.398C-46.472,30.398,-85.441,21.626,-85.829,21.538C-85.829,21.538,-88.515,20.924,-88.515,20.924C-88.515,20.924,-88.515,0.265,-88.515,0.265C-119.941,-5.046,-152.089,-15.034,-173.5,-22.47C-174.114,-25.083,-174.697,-27.727,-175.246,-30.398C-153.651,-22.747,-118.422,-11.496,-84.517,-6.078C-84.517,-6.078,-81.608,-5.614,-81.608,-5.614C-81.608,-5.614,-81.608,15.372,-81.608,15.372C-72.126,17.302,-38.724,23.491,0,23.491C38.763,23.491,72.134,17.306,81.608,15.372C81.608,15.372,81.608,-5.614,81.608,-5.614C81.608,-5.614,84.517,-6.078,84.517,-6.078C118.422,-11.496,153.651,-22.747,175.246,-30.398Z" /></g><g id="i27" transform="matrix(1,0,0,1,540,491.957)"><path fill="url(#i7)" d="M-74.711,-43.245C-74.711,-43.245,-74.711,0.883,-74.711,0.883C-74.711,24.279,-41.262,43.245,0,43.245C41.262,43.245,74.711,24.279,74.711,0.883C74.711,0.883,74.711,-43.245,74.711,-43.245C74.711,-43.245,-74.711,-43.245,-74.711,-43.245Z" /></g><g id="i28" transform="matrix(1,0,0,1,581.038,666.197)" opacity="0.04"><path fill="#383838" d="M142.615,-80.003C142.615,-48.327,139.675,-19.323,134.21,6.88C133.659,9.551,133.076,12.194,132.464,14.808C107.497,122.058,39.243,180.129,-41.038,180.129C-78.595,180.129,-113.521,167.417,-142.615,142.907C-114.773,149.404,-85.214,146.932,-57.771,138.759C8.248,119.098,63.024,65.171,83.717,-0.53C102.481,-60.105,92.73,-127.805,58.811,-180.129C111.209,-161.218,142.615,-126.002,142.615,-80.003Z" /></g><g id="i19" transform="matrix(1,0,0,1,418.063,574.529)" opacity="0.49"><path fill="#ffffff" d="M37.103,-33.275C33.559,-25.547,26.23,-20.405,19.75,-14.903C-0.592,2.389,-14.884,26.668,-20.12,52.85C-21.184,58.184,-24.128,65.236,-29.426,63.992C-32.619,63.242,-34.165,59.676,-35.087,56.528C-42.505,31.141,-39.666,2.911,-27.346,-20.49C-18.287,-37.695,-4.175,-52.15,12.651,-61.874C19.391,-65.769,27.985,-64.566,33.201,-58.787C33.235,-58.75,33.269,-58.712,33.302,-58.675C39.322,-51.909,40.879,-41.509,37.103,-33.275Z" /></g></g></g></g><g id="i20"><g transform="translate(342,795.519)"><animateTransform repeatCount="indefinite" type="translate" attributeName="transform" dur="6s" begin="0s" calcMode="spline" values="342 795.519; 342 795.519; 342 755.519; 342 795.519; 342 755.519; 342 795.519; 342 755.519; 342 795.519" keyTimes="0; 0.944445; 1; 1; 1; 1; 1; 1" keySplines="0 0 1 1; 0.333 0 0.667 1; 0.333 0 0.667 1; 0.333 0 0.667 1; 0.333 0 0.667 1; 0.333 0 0.667 1; 0.333 0 0.667 1" fill="freeze" /><g transform="scale(1,1) translate(-542,-849.519)"><g transform="matrix(1,0,0,1,0,0)" id="i29"><g id="i30"><g transform="translate(540,261.003)"><animateTransform repeatCount="indefinite" type="translate" attributeName="transform" dur="6s" begin="0s" calcMode="spline" values="540 261.003; 540 261.003; 514 261.003; 514 261.003; 568 261.003; 568 261.003; 540 261.003; 540 261.003; 540 245.003; 540 280.003; 540 245.003; 540 280.003; 540 245.003; 540 261.003; 540 261.003; 514 261.003; 514 261.003; 540 261.003" keyTimes="0; 0.944445; 1; 1; 1; 1; 1; 1; 1; 1; 1; 1; 1; 1; 1; 1; 1; 1" keySplines="0 0 1 1; 0.333 0 0.667 1; 0 0 1 1; 0.333 0 0.667 1; 0 0 1 1; 0.167 0 0.667 1; 0 0 1 1; 0.333 0 0.667 1; 0.333 0 0.667 1; 0.269 0 0.667 1; 0.333 0 0.667 1; 0.269 0 0.667 1; 0.333 0 0.667 1; 0 0 1 1; 0.333 0 0.667 1; 0 0 1 1; 0.187 0 0.697 1" fill="freeze" /><g transform="scale(1,1) translate(-540,-261.003)"><g id="i27" transform="matrix(1,0,0,1,304.627,323.904)"><path fill="url(#i8)" d="M22.405,59.103C22.405,59.103,10.629,57.29,10.629,57.29C-8.376,54.364,-22.405,38.01,-22.405,18.781C-22.405,18.781,-22.405,-18.781,-22.405,-18.781C-22.405,-38.01,-8.376,-54.364,10.629,-57.29C10.629,-57.29,22.405,-59.103,22.405,-59.103C22.405,-59.103,62.405,-60.904,62.405,-60.904C62.405,-60.904,62.853,63.257,62.853,63.257C62.853,63.257,22.405,59.103,22.405,59.103Z" /></g><g id="i28" transform="matrix(1,0,0,1,775.373,323.904)"><path fill="url(#i9)" d="M-22.405,59.103C-22.405,59.103,-10.629,57.29,-10.629,57.29C8.376,54.364,22.405,38.01,22.405,18.781C22.405,18.781,22.405,-18.781,22.405,-18.781C22.405,-38.01,8.376,-54.364,-10.629,-57.29C-10.629,-57.29,-22.405,-59.103,-22.405,-59.103C-22.405,-59.103,-70.905,-65.404,-70.905,-65.404C-70.905,-65.404,-72.318,62.081,-72.318,62.081C-72.318,62.081,-22.405,59.103,-22.405,59.103Z" /></g><g id="i19" transform="matrix(1,0,0,1,540,196.131)"><path fill="url(#i10)" d="M79.16,0C79.16,31.552,43.719,57.131,0,57.131C-43.719,57.131,-79.16,31.552,-79.16,0C-79.16,-31.552,-79.16,-57.131,0,-57.131C79.16,-57.131,79.16,-31.552,79.16,0Z" /></g></g></g></g></g></g></g></g><g id="i20"><g transform="translate(342,795.519)"><animateTransform repeatCount="indefinite" type="translate" attributeName="transform" dur="6s" begin="0s" calcMode="spline" values="342 795.519; 342 795.519; 342 755.519; 342 795.519; 342 755.519; 342 795.519; 342 755.519; 342 795.519" keyTimes="0; 0.944445; 1; 1; 1; 1; 1; 1" keySplines="0 0 1 1; 0.333 0 0.667 1; 0.333 0 0.667 1; 0.333 0 0.667 1; 0.333 0 0.667 1; 0.333 0 0.667 1; 0.333 0 0.667 1" fill="freeze" /><g transform="scale(1,1) translate(-542,-849.519)"><g transform="matrix(1,0,0,1,0,0)" id="i29"><g id="i28" transform="matrix(1,0,0,1,536.357,322.307)"><path fill="url(#i11)" d="M-217.223,59.103C-217.223,86.062,-202.464,110.869,-178.751,123.694C-148.607,139.997,-95.035,155.108,0,155.108C95.035,155.108,148.607,139.997,178.751,123.694C202.464,110.869,217.223,86.062,217.223,59.103C217.223,59.103,217.223,-59.103,217.223,-59.103C217.223,-86.062,202.464,-110.869,178.751,-123.694C148.607,-139.997,95.035,-155.108,0,-155.108C-95.035,-155.108,-148.607,-139.997,-178.751,-123.694C-202.464,-110.869,-217.223,-86.062,-217.223,-59.103C-217.223,-59.103,-217.223,59.103,-217.223,59.103Z" /></g><g id="i19" transform="matrix(1,0,0,1,380.775,226.347)" opacity="0.49"><path fill="#ffffff" d="M38.471,-11.132C-5.59,-0.851,-28.55,18.419,-39.773,31.928C-42.592,35.322,-48.081,32.556,-46.995,28.28C-41.229,5.58,-25.775,-8.713,-10.218,-17.474C3.286,-25.08,18.162,-29.609,33.316,-33.152C38.873,-34.451,44.516,-31.356,46.416,-25.975C46.441,-25.903,46.468,-25.83,46.493,-25.758C48.714,-19.467,44.968,-12.648,38.471,-11.132Z" /></g></g></g></g></g><g id="i20"><g transform="translate(342,795.519)"><animateTransform repeatCount="indefinite" type="translate" attributeName="transform" dur="6s" begin="0s" calcMode="spline" values="342 795.519; 342 795.519; 342 755.519; 342 795.519; 342 755.519; 342 795.519; 342 755.519; 342 795.519" keyTimes="0; 0.944445; 1; 1; 1; 1; 1; 1" keySplines="0 0 1 1; 0.333 0 0.667 1; 0.333 0 0.667 1; 0.333 0 0.667 1; 0.333 0 0.667 1; 0.333 0 0.667 1; 0.333 0 0.667 1" fill="freeze" /><g transform="scale(1,1) translate(-542,-849.519)"><g transform="matrix(1,0,0,1,0,0)" id="i29"><g id="i31"><g transform="translate(540,337.664)"><animateTransform repeatCount="indefinite" type="translate" attributeName="transform" dur="6s" begin="0s" calcMode="spline" values="540 337.664; 540 337.664; 560 337.664; 560 337.664; 517 337.664; 517 337.664; 540 337.664; 540 337.664; 540 350.664; 540 322.664; 540 350.664; 540 322.664; 540 350.664; 540 337.664; 540 337.664; 560 337.664; 560 337.664; 540 337.664" keyTimes="0; 0.944445; 1; 1; 1; 1; 1; 1; 1; 1; 1; 1; 1; 1; 1; 1; 1; 1" keySplines="0 0 1 1; 0.333 0 0.667 1; 0 0 1 1; 0.333 0 0.667 1; 0 0 1 1; 0.167 0 0.667 1; 0 0 1 1; 0.333 0 0.667 1; 0.333 0 0.667 1; 0.269 0 0.667 1; 0.333 0 0.667 1; 0.269 0 0.667 1; 0.333 0 0.667 1; 0 0 1 1; 0.333 0 0.667 1; 0 0 1 1; 0.187 0 0.697 1" fill="freeze" /><g transform="scale(1,1) translate(0,0)"><g id="i19"><path fill="url(#i12)" d="M0,118.361C-94.925,118.361,-143.654,102.783,-167.816,89.715C-184.113,80.901,-194.236,63.899,-194.236,45.343C-194.236,45.343,-194.236,-45.342,-194.236,-45.342C-194.236,-63.898,-184.113,-80.901,-167.816,-89.715C-143.654,-102.783,-94.925,-118.361,0,-118.361C94.925,-118.361,143.653,-102.783,167.816,-89.715C184.112,-80.901,194.236,-63.898,194.236,-45.342C194.236,-45.342,194.236,45.343,194.236,45.343C194.236,63.899,184.113,80.901,167.816,89.715C143.653,102.784,94.925,118.361,0,118.361Z" /></g></g></g></g></g></g></g></g><g id="i20"><g transform="translate(342,795.519)"><animateTransform repeatCount="indefinite" type="translate" attributeName="transform" dur="6s" begin="0s" calcMode="spline" values="342 795.519; 342 795.519; 342 755.519; 342 795.519; 342 755.519; 342 795.519; 342 755.519; 342 795.519" keyTimes="0; 0.944445; 1; 1; 1; 1; 1; 1" keySplines="0 0 1 1; 0.333 0 0.667 1; 0.333 0 0.667 1; 0.333 0 0.667 1; 0.333 0 0.667 1; 0.333 0 0.667 1; 0.333 0 0.667 1" fill="freeze" /><g transform="scale(1,1) translate(-542,-849.519)"><g transform="matrix(1,0,0,1,0,0)" id="i29"><g id="i31"><g transform="translate(540,337.664)"><animateTransform repeatCount="indefinite" type="translate" attributeName="transform" dur="6s" begin="0s" calcMode="spline" values="540 337.664; 540 337.664; 560 337.664; 560 337.664; 517 337.664; 517 337.664; 540 337.664; 540 337.664; 540 350.664; 540 322.664; 540 350.664; 540 322.664; 540 350.664; 540 337.664; 540 337.664; 560 337.664; 560 337.664; 540 337.664" keyTimes="0; 0.944445; 1; 1; 1; 1; 1; 1; 1; 1; 1; 1; 1; 1; 1; 1; 1; 1" keySplines="0 0 1 1; 0.333 0 0.667 1; 0 0 1 1; 0.333 0 0.667 1; 0 0 1 1; 0.167 0 0.667 1; 0 0 1 1; 0.333 0 0.667 1; 0.333 0 0.667 1; 0.269 0 0.667 1; 0.333 0 0.667 1; 0.269 0 0.667 1; 0.333 0 0.667 1; 0 0 1 1; 0.333 0 0.667 1; 0 0 1 1; 0.187 0 0.697 1" fill="freeze" /><g transform="scale(1,1) translate(0,0)"><g id="i32"><g transform="translate(1.223,17.765)"><animateTransform repeatCount="indefinite" type="translate" attributeName="transform" dur="6s" begin="0s" calcMode="spline" values="1.223 17.765; 1.223 17.765; 36.223 17.765; 36.223 17.765; -34.777 17.765; -34.777 17.765; 1.223 17.765; 1.223 17.765; 1.223 36.765; 1.223 -1.235; 1.223 36.765; 1.223 -1.235; 1.223 36.765; 1.223 17.765; 1.223 17.765; 36.223 17.765; 36.223 17.765; 1.223 17.765" keyTimes="0; 0.944445; 1; 1; 1; 1; 1; 1; 1; 1; 1; 1; 1; 1; 1; 1; 1; 1" keySplines="0 0 1 1; 0.333 0 0.667 1; 0 0 1 1; 0.333 0 0.667 1; 0 0 1 1; 0.167 0 0.667 1; 0 0 1 1; 0.333 0 0.667 1; 0.333 0 0.667 1; 0.269 0 0.667 1; 0.333 0 0.667 1; 0.269 0 0.667 1; 0.333 0 0.667 1; 0 0 1 1; 0.333 0 0.667 1; 0 0 1 1; 0.187 0 0.697 1" fill="freeze" /><g transform="scale(1,1) translate(-541.223,-355.429)"><g opacity="0.06"><g transform="translate(449.055,334.833)"><g id="i33" transform="scale(1,1)"><animateTransform repeatCount="indefinite" type="scale" attributeName="transform" dur="6s" begin="0s" calcMode="spline" values="1 1; 1 1; 1 0; 1 0; 1 1; 1 1; 1 0; 1 0; 1 1" keyTimes="0; 1; 1; 1; 1; 1; 1; 1; 1" keySplines="0 0 1 1; 0.333 0 0.667 1; 0.302 0 0.667 1; 0.333 0 0.667 1; 0.32 0 0.667 1; 0.333 0 0.667 1; 0.302 0 0.667 1; 0.333 0 0.667 1" fill="freeze" /><path fill="url(#i13)" d="M48.124,0C48.124,26.578,26.578,48.124,0,48.124C-26.578,48.124,-48.124,26.578,-48.124,0C-48.124,-26.578,-26.578,-48.124,0,-48.124C26.578,-48.124,48.124,-26.578,48.124,0Z" /></g></g></g><g><g transform="translate(447.667,329.826)"><g id="i25" transform="scale(1,1)"><animateTransform repeatCount="indefinite" type="scale" attributeName="transform" dur="6s" begin="0s" calcMode="spline" values="1 1; 1 1; 1 0; 1 0; 1 1; 1 1; 1 0; 1 0; 1 1" keyTimes="0; 1; 1; 1; 1; 1; 1; 1; 1" keySplines="0 0 1 1; 0.333 0 0.667 1; 0.302 0 0.667 1; 0.333 0 0.667 1; 0.32 0 0.667 1; 0.333 0 0.667 1; 0.302 0 0.667 1; 0.333 0 0.667 1" fill="freeze" /><path fill="url(#i14)" d="M29.527,9.658C29.527,25.966,16.308,17.85,0,17.85C-16.308,17.85,-29.527,25.966,-29.527,9.658C-29.527,-6.65,-16.308,-19.87,0,-19.87C16.308,-19.87,29.527,-6.65,29.527,9.658Z" /></g></g></g><g id="i26" transform="matrix(1,0,0,1,540,398.484)"><path fill="#54e0ef" d="M23.637,-10.13C23.637,-3.603,20.992,2.304,16.713,6.583C12.434,10.862,6.527,13.507,0,13.507C-13.054,13.507,-23.637,2.924,-23.637,-10.13C-23.637,-11.06,-23.26,-11.906,-22.648,-12.518C-22.036,-13.13,-21.19,-13.507,-20.26,-13.507C-20.26,-13.507,20.26,-13.507,20.26,-13.507C22.123,-13.507,23.637,-11.993,23.637,-10.13Z" /></g><g opacity="0.06"><g transform="translate(633.392,334.833)"><g id="i27" transform="scale(1,1)"><animateTransform repeatCount="indefinite" type="scale" attributeName="transform" dur="6s" begin="0s" calcMode="spline" values="1 1; 1 1; 1 0; 1 0; 1 1; 1 1; 1 0; 1 0; 1 1" keyTimes="0; 1; 1; 1; 1; 1; 1; 1; 1" keySplines="0 0 1 1; 0.333 0 0.667 1; 0.302 0 0.667 1; 0.333 0 0.667 1; 0.32 0 0.667 1; 0.333 0 0.667 1; 0.302 0 0.667 1; 0.333 0 0.667 1" fill="freeze" /><path fill="url(#i15)" d="M48.124,0C48.124,26.578,26.578,48.124,0,48.124C-26.578,48.124,-48.124,26.578,-48.124,0C-48.124,-26.578,-26.578,-48.124,0,-48.124C26.578,-48.124,48.124,-26.578,48.124,0Z" /></g></g></g><g id="i28" transform="matrix(1,0,0,1,539.184,402.737)" opacity="0.06"><path fill="url(#i16)" d="M42.822,-21.411C42.822,2.239,23.65,21.411,0,21.411C-23.65,21.411,-42.822,2.239,-42.822,-21.411C-42.822,-21.411,42.822,-21.411,42.822,-21.411Z" /></g><g><g transform="translate(632.005,329.826)"><g id="i19" transform="scale(1,1)"><animateTransform repeatCount="indefinite" type="scale" attributeName="transform" dur="6s" begin="0s" calcMode="spline" values="1 1; 1 1; 1 0; 1 0; 1 1; 1 1; 1 0; 1 0; 1 1" keyTimes="0; 1; 1; 1; 1; 1; 1; 1; 1" keySplines="0 0 1 1; 0.333 0 0.667 1; 0.302 0 0.667 1; 0.333 0 0.667 1; 0.32 0 0.667 1; 0.333 0 0.667 1; 0.302 0 0.667 1; 0.333 0 0.667 1" fill="freeze" /><path fill="url(#i17)" d="M29.527,9.658C29.527,25.966,16.308,17.85,0,17.85C-16.308,17.85,-29.527,25.966,-29.527,9.658C-29.527,-6.65,-16.308,-19.87,0,-19.87C16.308,-19.87,29.527,-6.65,29.527,9.658Z" /></g></g></g></g></g></g></g></g></g></g></g></g></g></svg>