<svg width="60" height="60" viewBox="0 0 60 60" fill="none" xmlns="http://www.w3.org/2000/svg">
<rect x="0.4" y="0.4" width="59.2" height="59.2" rx="7.6" fill="#E6F7F1" stroke="#147752" stroke-width="0.8"/>
<path d="M48.5811 22.3485C49.254 22.3426 49.8732 22.9318 49.8463 23.6137V32.6732C49.8463 34.701 49.2421 36.684 48.1115 38.3649L43.1137 45.8333C43.0269 45.9738 42.9791 46.1353 42.9701 46.3028V48.875H33.5248C33.7252 47.4155 32.9236 43.5213 34.3802 42.5103C35.1219 42.0497 40.2484 36.0888 41.1935 36.3221C42.5843 36.2982 43.5145 37.7787 43.5145 39.8723C43.5145 41.966 38.7469 45.4474 38.7469 45.4474C38.7469 45.4474 42.3181 42.2651 42.7249 41.8374C44.5523 39.9112 43.5264 36.5405 40.9303 36.1666C41.4358 35.7897 47.5791 21.3227 48.6439 22.3545H48.5841L48.5811 22.3485Z" fill="#F3BA58" stroke="#333333" stroke-linecap="round" stroke-linejoin="round"/>
<path d="M11.356 22.3485C12.4208 21.3167 18.5642 35.7867 19.0696 36.1606C16.4705 36.5375 15.4446 39.9082 17.2751 41.8314C17.6818 42.2591 21.253 45.4414 21.253 45.4414C21.253 45.4414 16.4855 41.96 16.4855 39.8664C16.4855 37.7727 17.4126 36.2922 18.8064 36.3161C19.7515 36.0828 24.878 42.0437 25.6197 42.5044C27.0763 43.5153 26.2747 47.4095 26.4751 48.869H17.0298V46.2968C17.0238 46.1293 16.973 45.9708 16.8862 45.8273L11.8884 38.3589C10.7578 36.675 10.1537 34.6951 10.1537 32.6672V23.6077C10.1268 22.9258 10.7459 22.3366 11.4188 22.3425H11.359L11.356 22.3485Z" fill="#F3BA58" stroke="#333333" stroke-linecap="round" stroke-linejoin="round"/>
<path d="M29.8969 33.5705C29.6905 33.5705 29.4931 33.4897 29.3465 33.3462L19.1445 23.2668C18.3818 22.525 17.7747 21.6367 17.3619 20.6557C16.9492 19.6747 16.7368 18.6189 16.7368 17.5541C16.7488 16.6987 16.9252 15.8553 17.2632 15.0686C17.6012 14.282 18.0887 13.5702 18.7019 12.975C19.315 12.3768 20.0388 11.9072 20.8314 11.5902C21.624 11.2732 22.4734 11.1146 23.3288 11.1266C24.4055 11.1266 25.4673 11.3868 26.4184 11.8863C27.3725 12.3888 28.1861 13.1156 28.7962 14.0039L29.1641 14.5153C29.2538 14.6559 29.3765 14.7695 29.523 14.8473C29.6696 14.9251 29.8341 14.967 29.9986 14.964C30.1631 14.964 30.3246 14.9281 30.4711 14.8533C30.6177 14.7785 30.7433 14.6679 30.836 14.5333L31.2039 14.0039C31.8111 13.1156 32.6276 12.3888 33.5817 11.8863C34.5358 11.3838 35.5946 11.1236 36.6713 11.1266C37.5267 11.1146 38.3731 11.2732 39.1687 11.5902C39.9613 11.9072 40.6851 12.3768 41.2983 12.975C41.9114 13.5732 42.3989 14.282 42.7369 15.0686C43.0749 15.8553 43.2543 16.6987 43.2633 17.5541C43.2633 18.6189 43.0509 19.6747 42.6382 20.6557C42.2255 21.6367 41.6183 22.525 40.8556 23.2668L30.6536 33.3462C30.5579 33.4449 30.4382 33.5196 30.3066 33.5585C30.175 33.5974 30.0345 33.6034 29.8999 33.5705H29.8969Z" fill="#00AF71" stroke="#333333" stroke-linecap="round" stroke-linejoin="round"/>
<path d="M37.4404 14.0607C38.0349 14.2985 38.5777 14.6507 39.0376 15.0993C39.4974 15.5479 39.8631 16.0796 40.1166 16.6695C40.37 17.2595 40.5046 17.8921 40.5114 18.5336C40.5114 19.3322 40.3521 20.124 40.0425 20.8598" stroke="white" stroke-width="0.541237" stroke-linecap="round" stroke-linejoin="round"/>
</svg>
