<svg width="60" height="60" viewBox="0 0 60 60" fill="none" xmlns="http://www.w3.org/2000/svg">
<rect x="0.4" y="0.400488" width="59.2" height="59.2" rx="7.6" fill="#E6F7F1" stroke="#147752" stroke-width="0.8"/>
<path d="M19.5098 10.4009H40.4902C42.2425 10.4009 43.5996 11.6909 43.5996 13.2095V46.7905C43.5996 48.3093 42.2423 49.6001 40.4902 49.6001H19.5098C17.7576 49.6001 16.4004 48.3104 16.4004 46.7905V13.2095C16.4004 11.6909 17.7575 10.4009 19.5098 10.4009Z" fill="#EAEEEF" stroke="#333333" stroke-width="0.8"/>
<path d="M30 26.2004C40.162 26.2004 48.4004 34.4388 48.4004 44.6008C48.4004 44.8217 48.2209 45.0012 48 45.0012H42C41.7791 45.0012 41.5996 44.8217 41.5996 44.6008C41.5996 38.1943 36.4065 33.0012 30 33.0012C23.5935 33.0012 18.4004 38.1943 18.4004 44.6008C18.4004 44.8217 18.2209 45.0012 18 45.0012H12C11.7791 45.0012 11.5996 44.8217 11.5996 44.6008C11.5996 34.4388 19.838 26.2004 30 26.2004Z" fill="#00AF71" stroke="#333333" stroke-width="0.8" stroke-linejoin="round"/>
<path d="M17 32.6008L21.2879 36.7977" stroke="#333333" stroke-width="0.8" stroke-linecap="round"/>
<path d="M43.2427 32.6008L39 36.8434" stroke="#333333" stroke-width="0.8" stroke-linecap="round"/>
<path d="M30 26.6008L30 32.6008" stroke="#333333" stroke-width="0.8" stroke-linecap="round"/>
<path d="M24 14.5H36C36.8284 14.5 37.5 15.1716 37.5 16V20C37.5 20.8284 36.8284 21.5 36 21.5H24C23.1716 21.5 22.5 20.8284 22.5 20V16C22.5 15.1716 23.1716 14.5 24 14.5Z" fill="white" stroke="#333333"/>
<path d="M37.2052 33.6414C37.35 33.5694 37.5277 33.5913 37.6513 33.7027C37.7926 33.8303 37.8248 34.0405 37.7278 34.2044C36.2844 36.6404 33.7339 40.6832 30.8967 43.9752L30.3255 44.6224C29.9418 45.0474 29.4 45.27 28.8278 45.2427L28.8239 45.2429C28.2484 45.2109 27.7384 44.9254 27.3948 44.4496L27.3958 44.4486C26.8702 43.7292 26.9713 42.7299 27.5739 42.0624L27.5749 42.0623L28.1587 41.4321C31.1344 38.2943 34.8737 35.3615 37.1455 33.6787L37.2052 33.6414Z" fill="#F0A92E" stroke="#333333" stroke-width="0.8" stroke-miterlimit="10" stroke-linejoin="round"/>
</svg>
