<svg width="60" height="60" viewBox="0 0 60 60" fill="none" xmlns="http://www.w3.org/2000/svg">
<rect x="0.4" y="0.400488" width="59.2" height="59.2" rx="7.6" fill="#E6F7F1" stroke="#147752" stroke-width="0.8"/>
<mask id="path-2-inside-1_672_316" fill="white">
<path fill-rule="evenodd" clip-rule="evenodd" d="M51.9986 26.9125V18.6073H52C52 16.8585 50.5857 15.4418 48.8431 15.4418H11.157C9.4129 15.4418 8 16.8585 8 18.6073V26.9125V27.0004V41.3937C8 43.1424 9.41432 44.5592 11.157 44.5592H48.8429C50.5871 44.5592 52 43.1424 52 41.3937V26.9125H51.9986Z"/>
</mask>
<path fill-rule="evenodd" clip-rule="evenodd" d="M51.9986 26.9125V18.6073H52C52 16.8585 50.5857 15.4418 48.8431 15.4418H11.157C9.4129 15.4418 8 16.8585 8 18.6073V26.9125V27.0004V41.3937C8 43.1424 9.41432 44.5592 11.157 44.5592H48.8429C50.5871 44.5592 52 43.1424 52 41.3937V26.9125H51.9986Z" fill="#EAEEEF"/>
<path d="M51.9986 18.6073V17.4073H50.7986V18.6073H51.9986ZM51.9986 26.9125H50.7986V28.1125H51.9986V26.9125ZM52 18.6073V19.8073H53.2V18.6073H52ZM52 26.9125H53.2V25.7125H52V26.9125ZM50.7986 18.6073V26.9125H53.1986V18.6073H50.7986ZM52 17.4073H51.9986V19.8073H52V17.4073ZM48.8431 16.6418C49.9203 16.6418 50.8 17.5185 50.8 18.6073H53.2C53.2 16.1985 51.2512 14.2418 48.8431 14.2418V16.6418ZM11.157 16.6418H48.8431V14.2418H11.157V16.6418ZM9.2 18.6073C9.2 17.5182 10.0787 16.6418 11.157 16.6418V14.2418C8.74711 14.2418 6.8 16.1988 6.8 18.6073H9.2ZM9.2 26.9125V18.6073H6.8V26.9125H9.2ZM9.2 27.0004V26.9125H6.8V27.0004H9.2ZM9.2 41.3937V27.0004H6.8V41.3937H9.2ZM11.157 43.3592C10.0797 43.3592 9.2 42.4824 9.2 41.3937H6.8C6.8 43.8025 8.74891 45.7592 11.157 45.7592V43.3592ZM48.8429 43.3592H11.157V45.7592H48.8429V43.3592ZM50.8 41.3937C50.8 42.4827 49.9213 43.3592 48.8429 43.3592V45.7592C51.2528 45.7592 53.2 43.8022 53.2 41.3937H50.8ZM50.8 26.9125V41.3937H53.2V26.9125H50.8ZM51.9986 28.1125H52V25.7125H51.9986V28.1125Z" fill="#333333" mask="url(#path-2-inside-1_672_316)"/>
<path d="M51.5996 21.8422V26.0414H8.40039V21.8422H51.5996Z" fill="#F0A92E" stroke="#333333" stroke-width="0.8"/>
<path d="M30.9413 33.5297C30.6978 33.5297 30.5 33.3319 30.5 33.0884V30.4417C30.5 30.1982 30.6978 30.0004 30.9413 30.0004C31.1848 30.0004 31.3827 30.1982 31.3827 30.4417V33.0884C31.3827 33.3319 31.1848 33.5297 30.9413 33.5297Z" fill="#9F9F9F"/>
<path d="M27.4101 33.5297C27.1666 33.5297 26.9688 33.3319 26.9688 33.0884V30.4417C26.9688 30.1982 27.1666 30.0004 27.4101 30.0004C27.6536 30.0004 27.8514 30.1982 27.8514 30.4417V33.0884C27.8514 33.3319 27.6536 33.5297 27.4101 33.5297Z" fill="#9F9F9F"/>
<path d="M23.8827 33.5297C23.6392 33.5297 23.4414 33.3319 23.4414 33.0884V30.4417C23.4414 30.1982 23.6392 30.0004 23.8827 30.0004C24.1262 30.0004 24.3241 30.1982 24.3241 30.4417V33.0884C24.3241 33.3319 24.1262 33.5297 23.8827 33.5297Z" fill="#9F9F9F"/>
<path d="M20.3515 33.5297C20.108 33.5297 19.9102 33.3319 19.9102 33.0884V30.4417C19.9102 30.1982 20.108 30.0004 20.3515 30.0004C20.595 30.0004 20.7928 30.1982 20.7928 30.4417V33.0884C20.7928 33.3319 20.595 33.5297 20.3515 33.5297Z" fill="#9F9F9F"/>
<path d="M16.8242 33.5297C16.5807 33.5297 16.3828 33.3319 16.3828 33.0884V30.4417C16.3828 30.1982 16.5807 30.0004 16.8242 30.0004C17.0676 30.0004 17.2655 30.1982 17.2655 30.4417V33.0884C17.2655 33.3319 17.0676 33.5297 16.8242 33.5297Z" fill="#9F9F9F"/>
<path d="M13.2929 33.5297C13.0494 33.5297 12.8516 33.3319 12.8516 33.0884V30.4417C12.8516 30.1982 13.0494 30.0004 13.2929 30.0004C13.5364 30.0004 13.7342 30.1982 13.7342 30.4417V33.0884C13.7342 33.3319 13.5364 33.5297 13.2929 33.5297Z" fill="#9F9F9F"/>
<path d="M44.1738 34.9125C45.6008 34.9125 46.7617 36.0735 46.7617 37.5004C46.7617 38.9274 45.6008 40.0883 44.1738 40.0883C42.7469 40.0882 41.5859 38.9273 41.5859 37.5004C41.586 36.0735 42.747 34.9126 44.1738 34.9125Z" fill="#33BF8D" stroke="#333333"/>
</svg>
