<svg width="17" height="17" viewBox="0 0 17 17" fill="none" xmlns="http://www.w3.org/2000/svg">
<g clip-path="url(#clip0_90_7425)">
<path d="M9.74707 3.25C9.74707 2.83516 9.41191 2.5 8.99707 2.5C8.58223 2.5 8.24707 2.83516 8.24707 3.25V8.93828L6.52676 7.21797C6.23379 6.925 5.75801 6.925 5.46504 7.21797C5.17207 7.51094 5.17207 7.98672 5.46504 8.27969L8.46504 11.2797C8.75801 11.5727 9.23379 11.5727 9.52676 11.2797L12.5268 8.27969C12.8197 7.98672 12.8197 7.51094 12.5268 7.21797C12.2338 6.925 11.758 6.925 11.465 7.21797L9.74707 8.93828V3.25ZM4.49707 10.75C3.66973 10.75 2.99707 11.4227 2.99707 12.25V13C2.99707 13.8273 3.66973 14.5 4.49707 14.5H13.4971C14.3244 14.5 14.9971 13.8273 14.9971 13V12.25C14.9971 11.4227 14.3244 10.75 13.4971 10.75H11.1182L10.0564 11.8117C9.47051 12.3977 8.52129 12.3977 7.93535 11.8117L6.87598 10.75H4.49707ZM13.1221 12.0625C13.2713 12.0625 13.4143 12.1218 13.5198 12.2273C13.6253 12.3327 13.6846 12.4758 13.6846 12.625C13.6846 12.7742 13.6253 12.9173 13.5198 13.0227C13.4143 13.1282 13.2713 13.1875 13.1221 13.1875C12.9729 13.1875 12.8298 13.1282 12.7243 13.0227C12.6188 12.9173 12.5596 12.7742 12.5596 12.625C12.5596 12.4758 12.6188 12.3327 12.7243 12.2273C12.8298 12.1218 12.9729 12.0625 13.1221 12.0625Z" fill="white"/>
</g>
<defs>
<clipPath id="clip0_90_7425">
<rect width="16.0027" height="16" fill="white" transform="translate(0.99707 0.5)"/>
</clipPath>
</defs>
</svg>
